<mxfile host="65bd71144e">
    <diagram id="maHTeQC3HRhHOLNJ7ehN" name="Page-1">
        <mxGraphModel dx="1254" dy="840" grid="1" gridSize="10" guides="1" tooltips="1" connect="1" arrows="1" fold="1" page="1" pageScale="1" pageWidth="827" pageHeight="1169" math="0" shadow="0">
            <root>
                <mxCell id="0"/>
                <mxCell id="1" parent="0"/>
                <mxCell id="3" value="" style="rounded=0;whiteSpace=wrap;html=1;fillColor=#4D4D4D;fontColor=#333333;strokeColor=#666666;" parent="1" vertex="1">
                    <mxGeometry x="60" y="130" width="520" height="910" as="geometry"/>
                </mxCell>
                <mxCell id="5" value="" style="rounded=1;whiteSpace=wrap;html=1;fontFamily=Courier New;fontSize=30;fontColor=#000000;" parent="1" vertex="1">
                    <mxGeometry x="59" y="135" width="520" height="60" as="geometry"/>
                </mxCell>
                <mxCell id="2" value="" style="verticalLabelPosition=bottom;verticalAlign=top;html=1;shadow=0;dashed=0;strokeWidth=1;shape=mxgraph.android.phone2;strokeColor=#c0c0c0;" parent="1" vertex="1">
                    <mxGeometry x="40" y="40" width="553.85" height="1080" as="geometry"/>
                </mxCell>
                <mxCell id="4" value="&lt;font face=&quot;Courier New&quot; style=&quot;font-size: 30px;&quot;&gt;Diagonally&lt;/font&gt;" style="text;html=1;strokeColor=none;fillColor=none;align=center;verticalAlign=middle;whiteSpace=wrap;rounded=0;fontColor=#CC99FF;" parent="1" vertex="1">
                    <mxGeometry x="209.85" y="150" width="230" height="30" as="geometry"/>
                </mxCell>
                <mxCell id="6" value="âž•" style="ellipse;whiteSpace=wrap;html=1;fontFamily=Courier New;fontSize=30;fillColor=#6d8764;strokeColor=#3A5431;fontColor=#FFFFFF;" parent="1" vertex="1">
                    <mxGeometry x="120" y="161" width="60" height="60" as="geometry"/>
                </mxCell>
                <mxCell id="7" value="" style="rounded=1;whiteSpace=wrap;html=1;fontFamily=Courier New;fontSize=30;fontColor=#FFFFFF;align=center;arcSize=5;" parent="1" vertex="1">
                    <mxGeometry x="66.92" y="229" width="500" height="181" as="geometry"/>
                </mxCell>
                <mxCell id="8" value="&lt;font style=&quot;font-size: 24px;&quot;&gt;Chicken&lt;/font&gt;&lt;br&gt;&lt;font color=&quot;#b3b3b3&quot; style=&quot;font-size: 16px;&quot;&gt;Quantity: 200g&lt;br&gt;Brand: Tesco&lt;br&gt;URL: https://asda.com/chicken&lt;br&gt;Notes: needed for fajitas&lt;/font&gt;" style="text;html=1;strokeColor=none;fillColor=none;align=left;verticalAlign=top;whiteSpace=wrap;rounded=0;fontFamily=Courier New;fontSize=20;fontColor=#FFFFFF;" parent="1" vertex="1">
                    <mxGeometry x="80.92" y="241" width="450" height="129" as="geometry"/>
                </mxCell>
                <mxCell id="9" value="&lt;font style=&quot;font-size: 14px;&quot;&gt;ryan&lt;/font&gt;" style="text;html=1;strokeColor=none;fillColor=none;align=center;verticalAlign=middle;whiteSpace=wrap;rounded=0;fontSize=24;fontColor=#808080;" vertex="1" parent="1">
                    <mxGeometry x="461.85" y="375" width="132.15" height="30" as="geometry"/>
                </mxCell>
                <mxCell id="10" value="ðŸ§¹" style="ellipse;whiteSpace=wrap;html=1;fontFamily=Courier New;fontSize=30;fillColor=#ffcccc;strokeColor=#36393d;" vertex="1" parent="1">
                    <mxGeometry x="481.92" y="161" width="60" height="60" as="geometry"/>
                </mxCell>
            </root>
        </mxGraphModel>
    </diagram>
</mxfile>